<svg width="402" height="89" viewBox="0 0 402 89" fill="none" xmlns="http://www.w3.org/2000/svg">
<path d="M135.037 68.6443C134.869 68.9972 134.731 69.3109 134.612 69.5854C134.504 69.8599 134.376 70.0853 134.228 70.2618C134.089 70.4383 133.912 70.5755 133.704 70.6735C133.497 70.7716 133.211 70.8108 132.856 70.8108H127.26C125.75 70.8108 125 70.0952 125 68.6541V26.7251C125 26.4114 125.059 26.1173 125.188 25.8526C125.306 25.5879 125.474 25.3625 125.671 25.1762C125.868 24.99 126.095 24.8429 126.352 24.7449C126.609 24.6468 126.855 24.588 127.102 24.588H133.517C134.237 24.588 134.8 24.7939 135.214 25.2056C135.629 25.6174 135.836 26.1271 135.836 26.7251V38.4009C136.359 37.8421 136.932 37.3226 137.534 36.8618C138.136 36.3912 138.787 35.9991 139.498 35.6658C140.208 35.3423 140.978 35.0776 141.827 34.8913C142.675 34.7051 143.613 34.607 144.649 34.607C147.215 34.607 149.574 35.0776 151.725 36.0285C153.887 36.9696 155.732 38.2735 157.291 39.9302C158.841 41.587 160.065 43.5281 160.933 45.7633C161.812 47.9984 162.246 50.4198 162.246 53.0177C162.246 55.596 161.812 58.0174 160.933 60.2624C160.055 62.5074 158.841 64.4582 157.291 66.115C155.742 67.7718 153.887 69.0756 151.725 70.0265C149.564 70.9775 147.205 71.4578 144.649 71.4578C143.692 71.4578 142.774 71.3402 141.896 71.0951C141.017 70.85 140.198 70.5363 139.429 70.1442C138.659 69.752 137.948 69.3109 137.297 68.8109C136.645 68.3109 136.063 67.811 135.56 67.311L135.037 68.6443ZM152.081 53.0177C152.081 51.8217 151.883 50.6747 151.498 49.5963C151.113 48.5082 150.561 47.5573 149.85 46.7338C149.13 45.9103 148.281 45.2633 147.284 44.7829C146.288 44.3026 145.162 44.0673 143.919 44.0673C142.675 44.0673 141.511 44.3026 140.425 44.7829C139.34 45.2633 138.402 45.9103 137.613 46.7338C136.823 47.5573 136.191 48.5082 135.738 49.5963C135.274 50.6845 135.047 51.8217 135.047 53.0177V53.4099C135.106 54.5863 135.372 55.694 135.856 56.7234C136.34 57.7527 136.971 58.6448 137.761 59.3997C138.55 60.1546 139.478 60.7526 140.534 61.1839C141.59 61.6153 142.715 61.8309 143.929 61.8309C145.172 61.8309 146.297 61.6054 147.294 61.1447C148.291 60.6839 149.15 60.0663 149.86 59.2821C150.581 58.4978 151.123 57.5665 151.508 56.4881C151.883 55.3999 152.081 54.2529 152.081 53.0177Z" fill="#272727"/>
<path d="M167.921 23.1567C167.921 22.3725 168.088 21.8137 168.434 21.4902C168.779 21.1667 169.302 21 170.013 21H176.566C177.227 21 177.76 21.1667 178.165 21.4902C178.569 21.8137 178.776 22.3725 178.776 23.1567V28.627C178.776 28.8525 178.727 29.0976 178.619 29.3525C178.52 29.6171 178.372 29.872 178.184 30.1073C177.997 30.3524 177.76 30.5485 177.493 30.7151C177.217 30.872 176.911 30.9504 176.576 30.9504H170.023C168.631 30.9504 167.93 30.1759 167.93 28.6172V23.1567H167.921ZM167.921 37.352C167.921 36.754 168.088 36.2344 168.434 35.8129C168.769 35.3815 169.302 35.1658 170.013 35.1658H176.487C176.714 35.1658 176.961 35.2149 177.217 35.3227C177.484 35.4207 177.73 35.5776 177.947 35.7737C178.174 35.9697 178.362 36.1952 178.53 36.4599C178.698 36.7246 178.767 37.0187 178.767 37.3618V68.6541C178.767 69.3697 178.569 69.8991 178.174 70.2716C177.78 70.6344 177.217 70.8206 176.477 70.8206H170.003C168.611 70.8206 167.911 70.105 167.911 68.6639V37.352H167.921Z" fill="#272727"/>
<path d="M190.925 59.7233C191.438 60.233 191.981 60.6546 192.573 60.9977C193.166 61.3408 193.738 61.6251 194.281 61.8408C194.824 62.0565 195.307 62.2133 195.722 62.3015C196.136 62.3898 196.422 62.4388 196.57 62.4388C196.926 62.4388 197.389 62.429 197.942 62.3996C198.495 62.3702 199.028 62.2917 199.541 62.1447C200.054 62.0074 200.488 61.7722 200.854 61.4585C201.219 61.1447 201.406 60.6938 201.406 60.1154C201.406 59.5958 201.298 59.1743 201.1 58.8704C200.893 58.5567 200.587 58.3018 200.192 58.0861C199.798 57.8704 199.314 57.6744 198.742 57.5077C198.169 57.3411 197.518 57.145 196.807 56.9195C194.547 56.3215 192.682 55.5961 191.211 54.753C189.741 53.9099 188.576 52.9688 187.718 51.9296C186.859 50.8904 186.267 49.7729 185.922 48.5769C185.586 47.3808 185.408 46.1162 185.408 44.7928C185.408 43.2438 185.714 41.8321 186.336 40.5577C186.958 39.2833 187.846 38.1951 188.991 37.2932C190.136 36.3815 191.517 35.6854 193.116 35.1855C194.715 34.6855 196.501 34.4404 198.455 34.4404C199.64 34.4404 200.755 34.5385 201.791 34.7345C202.827 34.9306 203.814 35.2443 204.762 35.656C205.699 36.0776 206.617 36.6168 207.515 37.2834C208.413 37.95 209.301 38.7343 210.19 39.6558C210.505 40.0283 210.673 40.3813 210.683 40.7048C210.693 41.0283 210.476 41.3812 210.051 41.7537C209.321 42.3517 208.611 42.9399 207.949 43.5183C207.278 44.0967 206.587 44.7437 205.877 45.4594C205.65 45.6456 205.423 45.7633 205.196 45.8123C204.969 45.8613 204.752 45.8515 204.545 45.8025C204.337 45.7437 204.14 45.6555 203.952 45.5182C203.765 45.3908 203.597 45.2241 203.439 45.0378C202.778 44.3124 202.028 43.8124 201.179 43.5673C200.33 43.3125 199.541 43.185 198.811 43.185C197.883 43.185 197.153 43.3419 196.61 43.6654C196.067 43.9889 195.81 44.4692 195.85 45.1261C195.889 45.6162 196.067 45.9888 196.403 46.2633C196.738 46.5378 197.133 46.7534 197.616 46.9201C198.1 47.0867 198.603 47.224 199.146 47.3318C199.679 47.4397 200.173 47.5475 200.627 47.6847C202.324 48.2239 203.873 48.8219 205.285 49.4494C206.696 50.0866 207.92 50.8708 208.956 51.7924C209.992 52.7139 210.802 53.8314 211.374 55.1157C211.946 56.4097 212.233 57.9783 212.233 59.8311C212.233 61.6839 211.857 63.3407 211.117 64.8014C210.377 66.2621 209.351 67.4875 208.048 68.4777C206.745 69.4678 205.206 70.2226 203.429 70.752C201.653 71.2716 199.728 71.5363 197.676 71.5363C196.511 71.5363 195.317 71.4383 194.113 71.2324C192.909 71.0265 191.744 70.6932 190.609 70.2325C189.475 69.7717 188.409 69.1835 187.392 68.4678C186.376 67.7522 185.468 66.8699 184.678 65.8406C184.471 65.5759 184.313 65.3014 184.214 65.0171C184.106 64.723 184.066 64.4387 184.076 64.1642C184.086 63.8799 184.145 63.625 184.244 63.3897C184.343 63.1544 184.51 62.9584 184.737 62.7819L188.379 59.1645C188.833 58.7919 189.228 58.6547 189.583 58.7723C189.929 58.8802 190.373 59.1939 190.925 59.7233Z" fill="#272727"/>
<path d="M241.238 59.8311C241.504 59.6448 241.751 59.5272 241.988 59.4782C242.224 59.4292 242.402 59.4096 242.54 59.4096C242.856 59.4096 243.152 59.4782 243.419 59.6056C243.685 59.7331 243.952 60.0174 244.238 60.4487L247.406 65.1935C247.495 65.3406 247.593 65.517 247.672 65.7033C247.751 65.8896 247.8 66.0366 247.8 66.1543C247.8 66.5856 247.662 66.9385 247.386 67.2032C247.11 67.4777 246.814 67.713 246.498 67.9189C244.948 68.9874 243.261 69.8403 241.425 70.4873C239.589 71.1344 237.645 71.4579 235.592 71.4579C233.895 71.4579 232.267 71.2422 230.688 70.8108C229.118 70.3795 227.648 69.7717 226.296 68.9678C224.944 68.1738 223.7 67.2228 222.565 66.1053C221.43 64.9877 220.473 63.7524 219.684 62.3898C218.894 61.0271 218.272 59.5468 217.828 57.9685C217.384 56.3901 217.167 54.7334 217.167 53.0178C217.167 51.3022 217.384 49.6454 217.828 48.0475C218.272 46.4593 218.884 44.9888 219.684 43.6262C220.473 42.2733 221.43 41.0381 222.565 39.9205C223.7 38.8127 224.934 37.8618 226.296 37.0677C227.648 36.2835 229.118 35.6756 230.688 35.2443C232.257 34.813 233.895 34.5973 235.592 34.5973C237.645 34.5973 239.54 34.8718 241.287 35.411C243.034 35.9501 244.662 36.754 246.192 37.8226L246.103 37.7344C246.517 37.9794 246.843 38.2637 247.09 38.5872C247.337 38.9108 247.455 39.3225 247.455 39.8127C247.455 40.146 247.337 40.4989 247.119 40.8518L244.603 45.0869C244.08 46.0084 243.438 46.4593 242.678 46.4593C242.511 46.4593 242.303 46.4201 242.057 46.3319C241.81 46.2437 241.543 46.1064 241.238 45.9005C240.409 45.3614 239.52 44.9104 238.563 44.5673C237.616 44.2242 236.599 44.0477 235.523 44.0477C234.339 44.0477 233.244 44.283 232.247 44.7634C231.25 45.2437 230.391 45.8907 229.691 46.7142C228.98 47.5377 228.437 48.4886 228.043 49.5768C227.648 50.665 227.451 51.8022 227.451 52.9982C227.451 54.2334 227.648 55.3902 228.043 56.4686C228.437 57.5469 228.99 58.4782 229.691 59.2625C230.401 60.0468 231.25 60.6742 232.247 61.1251C233.244 61.5859 234.339 61.8114 235.523 61.8114C236.599 61.8114 237.606 61.6251 238.543 61.2526C239.491 60.8899 240.389 60.4095 241.238 59.8311Z" fill="#272727"/>
<path d="M252.054 53.0178C252.054 51.2924 252.271 49.6454 252.715 48.0475C253.16 46.4593 253.781 44.9888 254.581 43.6262C255.38 42.2733 256.337 41.0381 257.462 39.9205C258.588 38.8127 259.831 37.8618 261.203 37.0677C262.575 36.2835 264.065 35.6756 265.654 35.2443C267.243 34.813 268.911 34.5973 270.638 34.5973C273.194 34.5973 275.602 35.0678 277.852 36.0188C280.102 36.9599 282.056 38.2637 283.724 39.9205C285.392 41.5773 286.704 43.5183 287.681 45.7535C288.649 47.9887 289.132 50.4101 289.132 53.008C289.132 54.7334 288.915 56.3803 288.471 57.9587C288.027 59.537 287.405 61.0173 286.606 62.38C285.806 63.7426 284.839 64.9877 283.724 66.0954C282.599 67.213 281.355 68.1639 279.984 68.958C278.612 69.7521 277.131 70.3697 275.562 70.801C273.993 71.2324 272.345 71.4481 270.628 71.4481C268.891 71.4481 267.233 71.2324 265.644 70.801C264.055 70.3697 262.565 69.7619 261.193 68.958C259.821 68.1639 258.568 67.213 257.453 66.0954C256.337 64.9779 255.37 63.7426 254.571 62.38C253.771 61.0173 253.15 59.537 252.706 57.9587C252.281 56.3901 252.054 54.7334 252.054 53.0178ZM262.367 53.0178C262.367 54.253 262.565 55.4098 262.95 56.4882C263.335 57.5665 263.877 58.4978 264.588 59.2821C265.298 60.0664 266.147 60.6938 267.164 61.1447C268.17 61.6055 269.305 61.831 270.569 61.831C271.792 61.831 272.898 61.6055 273.885 61.1447C274.871 60.684 275.71 60.0664 276.401 59.2821C277.092 58.4978 277.615 57.5665 277.98 56.4882C278.345 55.4098 278.533 54.253 278.533 53.0178C278.533 51.8218 278.345 50.6748 277.98 49.5964C277.615 48.5082 277.082 47.5573 276.401 46.7338C275.71 45.9103 274.871 45.2633 273.885 44.783C272.898 44.3026 271.792 44.0673 270.569 44.0673C269.305 44.0673 268.17 44.3026 267.164 44.783C266.157 45.2633 265.298 45.9103 264.588 46.7338C263.877 47.5573 263.335 48.5082 262.95 49.5964C262.565 50.6748 262.367 51.8218 262.367 53.0178Z" fill="#272727"/>
<path d="M294.748 23.1567C294.748 22.3725 294.915 21.8137 295.261 21.4902C295.606 21.1667 296.129 21 296.84 21H303.393C304.054 21 304.587 21.1667 304.992 21.4902C305.396 21.8137 305.603 22.3725 305.603 23.1567V28.627C305.603 28.8525 305.554 29.0976 305.446 29.3525C305.337 29.6171 305.199 29.872 305.011 30.1073C304.824 30.3426 304.597 30.5485 304.32 30.7151C304.044 30.8818 303.738 30.9504 303.403 30.9504H296.85C295.458 30.9504 294.757 30.1759 294.757 28.6172V23.1567H294.748ZM294.748 37.352C294.748 36.754 294.915 36.2344 295.261 35.8129C295.596 35.3815 296.129 35.1658 296.84 35.1658H303.304C303.531 35.1658 303.778 35.2149 304.044 35.3227C304.311 35.4207 304.547 35.5776 304.774 35.7737C305.001 35.9697 305.189 36.1952 305.357 36.4599C305.515 36.7246 305.594 37.0187 305.594 37.3618V68.6541C305.594 69.3697 305.396 69.8991 305.001 70.2716C304.607 70.6344 304.044 70.8206 303.304 70.8206H296.84C295.448 70.8206 294.748 70.105 294.748 68.6639V37.352Z" fill="#272727"/>
<path d="M314.555 29.6074C314.555 29.029 314.752 28.5878 315.137 28.3035C315.522 28.0094 316.074 27.735 316.785 27.4801L323.2 25.2645C323.289 25.2449 323.387 25.2351 323.466 25.2351C323.545 25.2351 323.634 25.2351 323.703 25.2351C324.404 25.2351 324.868 25.441 325.105 25.8429C325.341 26.2448 325.46 26.7742 325.46 27.431L325.43 35.1463H329.299C329.901 35.1463 330.394 35.3228 330.769 35.6757C331.144 36.0286 331.332 36.5678 331.332 37.2736V42.6851C331.332 43.4693 331.144 44.0477 330.769 44.4105C330.394 44.7732 329.901 44.9594 329.299 44.9594H325.43L325.46 68.6444C325.46 69.36 325.253 69.8894 324.838 70.2619C324.424 70.6344 323.851 70.8109 323.111 70.8109H316.726C315.275 70.8109 314.555 70.0952 314.555 68.6541L314.525 44.9692H311.614C310.163 44.9692 309.442 44.2144 309.442 42.6949V37.2834C309.442 35.8619 310.163 35.1463 311.614 35.1463H314.525L314.555 29.6074Z" fill="#272727"/>
<path d="M334.47 69.7423C334.411 69.4776 334.46 69.2227 334.608 68.9678C334.756 68.7129 334.895 68.5071 335.003 68.3404L346.244 52.5962L335.595 37.5579C335.408 37.3128 335.25 37.0481 335.112 36.7736C334.983 36.4893 334.924 36.2344 334.954 35.9991C334.983 35.7639 335.102 35.5678 335.319 35.4109C335.536 35.2541 335.901 35.1757 336.405 35.1757H345.277C345.593 35.1757 345.879 35.3129 346.106 35.5874C346.343 35.8619 346.609 36.205 346.915 36.6363L352.313 45.3123C352.669 44.8025 353.083 44.1653 353.557 43.3909C354.031 42.6164 354.514 41.8125 355.008 40.9792C355.511 40.146 355.985 39.3421 356.449 38.548C356.912 37.7539 357.307 37.0971 357.653 36.5579C357.968 36.0678 358.274 35.7246 358.541 35.509C358.817 35.2933 359.143 35.1855 359.518 35.1855H368.469C368.696 35.1855 368.903 35.2345 369.101 35.3227C369.298 35.4109 369.456 35.5482 369.565 35.7148C369.673 35.8815 369.722 36.0776 369.703 36.303C369.683 36.5285 369.565 36.7736 369.338 37.0285L358.294 52.5178L369.288 67.7816C369.515 68.1051 369.703 68.4384 369.87 68.7913C370.028 69.1443 370.097 69.4776 370.078 69.7717C370.058 70.0756 369.92 70.3207 369.663 70.5167C369.407 70.7128 368.982 70.8108 368.38 70.8108H359.222C358.373 70.8108 357.741 70.3207 357.327 69.3501L352.294 60.3703L347.211 69.4678C347.004 69.8795 346.737 70.203 346.422 70.4481C346.096 70.6932 345.79 70.8108 345.484 70.8108H335.655C335.388 70.8108 335.161 70.752 334.974 70.6442C334.786 70.5363 334.628 70.3305 334.49 70.0266L334.47 69.7423Z" fill="#272727"/>
<path d="M380.49 59.7233C381.003 60.233 381.546 60.6546 382.138 60.9977C382.73 61.3408 383.302 61.6251 383.845 61.8408C384.388 62.0565 384.871 62.2133 385.286 62.3015C385.7 62.3996 385.987 62.4388 386.135 62.4388C386.49 62.4388 386.954 62.429 387.506 62.3996C388.059 62.3702 388.592 62.2917 389.105 62.1447C389.618 62.0074 390.053 61.7722 390.418 61.4585C390.783 61.1447 390.97 60.6938 390.97 60.1154C390.97 59.5958 390.862 59.1743 390.655 58.8704C390.447 58.5567 390.151 58.3018 389.747 58.0861C389.352 57.8704 388.868 57.6744 388.296 57.5077C387.724 57.3411 387.072 57.145 386.362 56.9195C384.102 56.3215 382.236 55.5961 380.766 54.753C379.295 53.9099 378.131 52.9688 377.272 51.9296C376.414 50.8904 375.822 49.7729 375.476 48.5769C375.141 47.3808 374.963 46.1162 374.963 44.7928C374.963 43.2438 375.279 41.8321 375.891 40.5577C376.512 39.2833 377.401 38.1951 378.545 37.2932C379.69 36.3913 381.072 35.6854 382.671 35.1855C384.269 34.6855 386.046 34.4404 388.01 34.4404C389.194 34.4404 390.309 34.5385 391.346 34.7345C392.382 34.9306 393.369 35.2443 394.316 35.656C395.254 36.0776 396.171 36.6168 397.07 37.2834C397.968 37.95 398.856 38.7343 399.744 39.6558C400.06 40.0283 400.228 40.3813 400.237 40.7048C400.247 41.0283 400.03 41.3812 399.606 41.7537C398.876 42.3517 398.165 42.9399 397.504 43.5183C396.833 44.0967 396.142 44.7437 395.431 45.4594C395.204 45.6456 394.977 45.7633 394.75 45.8123C394.523 45.8613 394.306 45.8515 394.099 45.8025C393.892 45.7437 393.694 45.6555 393.507 45.5182C393.319 45.3908 393.152 45.2241 392.994 45.0378C392.332 44.3124 391.582 43.8124 390.734 43.5673C389.885 43.3125 389.095 43.185 388.365 43.185C387.437 43.185 386.707 43.3419 386.164 43.6654C385.621 43.9889 385.365 44.4692 385.404 45.1261C385.444 45.6162 385.621 45.9888 385.957 46.2633C386.283 46.5378 386.687 46.7534 387.171 46.9201C387.655 47.0867 388.158 47.224 388.701 47.3318C389.234 47.4397 389.727 47.5475 390.181 47.6847C391.878 48.2239 393.428 48.8219 394.839 49.4494C396.25 50.0866 397.474 50.8708 398.51 51.7924C399.547 52.7139 400.356 53.8314 400.928 55.1157C401.501 56.4097 401.787 57.9783 401.787 59.8311C401.787 61.6839 401.412 63.3407 400.672 64.8014C399.932 66.2621 398.905 67.4875 397.602 68.4777C396.3 69.4678 394.76 70.2226 392.984 70.752C391.207 71.2814 389.283 71.5363 387.23 71.5363C386.066 71.5363 384.871 71.4383 383.667 71.2324C382.463 71.0265 381.289 70.6932 380.164 70.2325C379.029 69.7717 377.963 69.1835 376.947 68.4678C375.93 67.7522 375.022 66.8699 374.233 65.8406C374.025 65.5759 373.867 65.3014 373.769 65.0171C373.67 64.7328 373.621 64.4387 373.631 64.1642C373.641 63.8799 373.7 63.625 373.798 63.3897C373.897 63.1544 374.065 62.9584 374.292 62.7819L377.934 59.1645C378.387 58.7919 378.782 58.6547 379.138 58.7723C379.493 58.8802 379.947 59.1939 380.49 59.7233Z" fill="#272727"/>
<rect width="89" height="89" rx="32" fill="url(#paint0_linear)"/>
<path d="M66.8561 52.9351C67.7408 50.99 63.0172 51.0018 62.0506 52.9351L61.6741 56.6446C57.4998 52.778 55.708 55.1734 55.6016 56.6446L55.708 60.6348C50.8748 58.7015 52.6419 64.4248 52.6419 64.6491C53.3507 66.4682 53.5481 66.9665 52.6419 67.34C48.0981 69.214 43.9115 69.1751 39.0169 68.1617C29.3577 66.1642 21.7056 58.3368 19.9778 48.684C18.5097 40.4896 21.0074 32.477 26.8276 26.699C32.6511 20.921 40.6929 18.4851 48.8808 20.0148C58.1763 21.7492 65.8673 29.1057 68.0142 38.3167C69.3686 44.1337 68.9398 48.3537 66.8561 52.9351ZM71.1744 37.5795C68.7417 27.1342 60.0211 18.7904 49.4785 16.8221C40.2219 15.091 31.1311 17.8517 24.5411 24.393C17.9511 30.9343 15.1222 39.9991 16.7818 49.2589C18.7403 60.2011 27.4122 69.0808 38.3609 71.3446C43.8856 72.4814 49.5272 71.965 54.6751 69.8408C57.6413 68.368 53.7267 63.3901 54.6751 63.6825L56.6747 63.2212C58.3666 63.0735 55.2267 52.9351 62.4746 60.3213C63.4717 60.3213 64.4079 60.3213 64.7069 58.9019C64.4079 56.6446 63.4412 55.488 64.7069 55.1734L66.8561 56.3992C67.3078 56.4547 68.6703 57.174 68.9398 56.6446C71.9344 50.7432 72.7074 44.15 71.1744 37.5795Z" fill="white"/>
<circle cx="27.6751" cy="37.1218" r="0.966648" fill="white"/>
<circle cx="35.4082" cy="29.3886" r="2.89994" fill="white"/>
<circle cx="49.9079" cy="34.2219" r="1.9333" fill="white"/>
<circle cx="39.2748" cy="40.9884" r="0.966648" fill="white"/>
<circle cx="61.508" cy="38.0884" r="1.9333" fill="white"/>
<circle cx="35.4082" cy="52.5882" r="2.89994" fill="white"/>
<circle cx="49.9079" cy="49.6882" r="1.9333" fill="white"/>
<circle cx="43.1415" cy="62.2546" r="0.966648" fill="white"/>
<circle cx="47.0079" cy="23.5887" r="2.89994" fill="white"/>
<defs>
<linearGradient id="paint0_linear" x1="98.5" y1="77.5" x2="-7.5" y2="-4.04675e-07" gradientUnits="userSpaceOnUse">
<stop stop-color="#FFAD01"/>
<stop offset="0.317708" stop-color="#FF6494"/>
<stop offset="0.611544" stop-color="#747DFF"/>
<stop offset="1" stop-color="#01C57D"/>
</linearGradient>
</defs>
</svg>
